<?xml version="1.0" encoding="UTF-8" standalone="no"?>
<!-- Generator: Adobe Illustrator 17.0.1, SVG Export Plug-In . SVG Version: 6.00 Build 0)  -->

<svg
   xmlns:osb="http://www.openswatchbook.org/uri/2009/osb"
   xmlns:dc="http://purl.org/dc/elements/1.1/"
   xmlns:cc="http://creativecommons.org/ns#"
   xmlns:rdf="http://www.w3.org/1999/02/22-rdf-syntax-ns#"
   xmlns:svg="http://www.w3.org/2000/svg"
   xmlns="http://www.w3.org/2000/svg"
   xmlns:xlink="http://www.w3.org/1999/xlink"
   xmlns:sodipodi="http://sodipodi.sourceforge.net/DTD/sodipodi-0.dtd"
   xmlns:inkscape="http://www.inkscape.org/namespaces/inkscape"
   version="1.1"
   x="0px"
   y="0px"
   width="86px"
   height="86px"
   viewBox="0 0 86 86"
   enable-background="new 0 0 86 86"
   xml:space="preserve"
   id="svg46"
   sodipodi:docname="harbour-concretemixer.svg"
   inkscape:export-filename="/home/tobias/Dokumente/SailfishApps/harbour-beamdimension/icons/172x172/harbour-beamdimension.png"
   inkscape:export-xdpi="193.58"
   inkscape:export-ydpi="193.58"
   inkscape:version="0.92.3 (2405546, 2018-03-11)"><metadata
   id="metadata52"><rdf:RDF><cc:Work
       rdf:about=""><dc:format>image/svg+xml</dc:format><dc:type
         rdf:resource="http://purl.org/dc/dcmitype/StillImage" /><dc:title /></cc:Work></rdf:RDF></metadata><defs
   id="defs50"><linearGradient
   inkscape:collect="always"
   id="linearGradient1012"><stop
     style="stop-color:#483737;stop-opacity:1"
     offset="0"
     id="stop1008" /><stop
     style="stop-color:#806262;stop-opacity:1"
     offset="1"
     id="stop1010" /></linearGradient><marker
   inkscape:stockid="EmptyTriangleInM"
   orient="auto"
   refY="0.0"
   refX="0.0"
   id="EmptyTriangleInM"
   style="overflow:visible"
   inkscape:isstock="true"><path
     id="path1047"
     d="M 5.77,0.0 L -2.88,5.0 L -2.88,-5.0 L 5.77,0.0 z "
     style="fill-rule:evenodd;fill:#ffffff;stroke:#ffffff;stroke-width:1pt;stroke-opacity:1;fill-opacity:1"
     transform="scale(-0.4) translate(-4.5,0)" /></marker><marker
   inkscape:stockid="TriangleInL"
   orient="auto"
   refY="0.0"
   refX="0.0"
   id="TriangleInL"
   style="overflow:visible"
   inkscape:isstock="true"><path
     id="path1026"
     d="M 5.77,0.0 L -2.88,5.0 L -2.88,-5.0 L 5.77,0.0 z "
     style="fill-rule:evenodd;stroke:#ffffff;stroke-width:1pt;stroke-opacity:1;fill:#ffffff;fill-opacity:1"
     transform="scale(-0.8)" /></marker><marker
   inkscape:stockid="Arrow2Lstart"
   orient="auto"
   refY="0.0"
   refX="0.0"
   id="marker1235"
   style="overflow:visible"
   inkscape:isstock="true"><path
     id="path1233"
     style="fill-rule:evenodd;stroke-width:0.625;stroke-linejoin:round;stroke:#ffffff;stroke-opacity:1;fill:#ffffff;fill-opacity:1"
     d="M 8.7185878,4.0337352 L -2.2072895,0.016013256 L 8.7185884,-4.0017078 C 6.9730900,-1.6296469 6.9831476,1.6157441 8.7185878,4.0337352 z "
     transform="scale(1.1) translate(1,0)" /></marker><marker
   inkscape:stockid="TriangleOutL"
   orient="auto"
   refY="0.0"
   refX="0.0"
   id="TriangleOutL"
   style="overflow:visible"
   inkscape:isstock="true"><path
     id="path1035"
     d="M 5.77,0.0 L -2.88,5.0 L -2.88,-5.0 L 5.77,0.0 z "
     style="fill-rule:evenodd;stroke:#ffffff;stroke-width:1pt;stroke-opacity:1;fill:#ffffff;fill-opacity:1"
     transform="scale(0.8)" /></marker><marker
   inkscape:stockid="Arrow2Lstart"
   orient="auto"
   refY="0.0"
   refX="0.0"
   id="Arrow2Lstart"
   style="overflow:visible"
   inkscape:isstock="true"><path
     id="path911"
     style="fill-rule:evenodd;stroke-width:0.625;stroke-linejoin:round;stroke:#ffffff;stroke-opacity:1;fill:#ffffff;fill-opacity:1"
     d="M 8.7185878,4.0337352 L -2.2072895,0.016013256 L 8.7185884,-4.0017078 C 6.9730900,-1.6296469 6.9831476,1.6157441 8.7185878,4.0337352 z "
     transform="scale(1.1) translate(1,0)" /></marker><marker
   inkscape:stockid="Arrow1Lend"
   orient="auto"
   refY="0.0"
   refX="0.0"
   id="Arrow1Lend"
   style="overflow:visible;"
   inkscape:isstock="true"><path
     id="path896"
     d="M 0.0,0.0 L 5.0,-5.0 L -12.5,0.0 L 5.0,5.0 L 0.0,0.0 z "
     style="fill-rule:evenodd;stroke:#ffffff;stroke-width:1pt;stroke-opacity:1;fill:#ffffff;fill-opacity:1"
     transform="scale(0.8) rotate(180) translate(12.5,0)" /></marker><inkscape:path-effect
   effect="bspline"
   id="path-effect852"
   is_visible="true"
   weight="33.333333"
   steps="2"
   helper_size="0"
   apply_no_weight="true"
   apply_with_weight="true"
   only_selected="false" /><linearGradient
   id="linearGradient2630"
   osb:paint="solid"><stop
     style="stop-color:#f9f8d9;stop-opacity:1;"
     offset="0"
     id="stop2628" /></linearGradient><inkscape:path-effect
   effect="spiro"
   id="path-effect2526"
   is_visible="true" /><inkscape:path-effect
   effect="spiro"
   id="path-effect2522"
   is_visible="true" /><inkscape:path-effect
   effect="spiro"
   id="path-effect2518"
   is_visible="true" /><inkscape:path-effect
   effect="spiro"
   id="path-effect2514"
   is_visible="true" /><linearGradient
   id="linearGradient2464"
   osb:paint="solid"><stop
     style="stop-color:#008080;stop-opacity:1;"
     offset="0"
     id="stop2462" /></linearGradient><linearGradient
   id="linearGradient2456"
   osb:paint="solid"><stop
     style="stop-color:#000000;stop-opacity:1;"
     offset="0"
     id="stop2454" /></linearGradient><linearGradient
   id="linearGradient2390"
   osb:paint="solid"><stop
     style="stop-color:#7b7b7d;stop-opacity:1;"
     offset="0"
     id="stop2388" /></linearGradient><linearGradient
   id="linearGradient2352"
   osb:paint="solid"><stop
     style="stop-color:#7c7d7b;stop-opacity:1;"
     offset="0"
     id="stop2350" /></linearGradient>
	
		<radialGradient
   gradientUnits="userSpaceOnUse"
   gradientTransform="matrix(0.9977,0,0,0.9977,-0.1277,-0.1249)"
   r="42.7486"
   cy="43.2243"
   cx="43.227402"
   id="SVGID_1_"
   fx="43.227402"
   fy="43.2243"
   fr="0"
   spreadMethod="pad">
		<stop
   id="stop3"
   style="stop-color:#081b34;stop-opacity:1"
   offset="0" />
		<stop
   id="stop5"
   style="stop-color:#103666;stop-opacity:1"
   offset="1" />
	</radialGradient>
	
	
	
	<linearGradient
   y2="19"
   x2="86"
   y1="19"
   x1="10"
   gradientUnits="userSpaceOnUse"
   id="SVGID_2_"
   gradientTransform="matrix(1.1224982,0,0,0.6868379,-10.88335,16.444782)"
   xlink:href="#SVGID_2_-9"
   spreadMethod="repeat">
		<stop
   id="stop16"
   style="stop-color:#FF4747"
   offset="0" />
		<stop
   id="stop18"
   style="stop-color:#ff9d73;stop-opacity:1"
   offset="1" />
	</linearGradient>
	
	
<linearGradient
   y2="19"
   x2="86"
   y1="19"
   x1="10"
   gradientUnits="userSpaceOnUse"
   id="SVGID_2_-5"
   gradientTransform="matrix(-9.6443495e-4,-1.1224978,0.68683765,-5.9012164e-4,29.556129,96.878851)"><stop
     id="stop16-6"
     style="stop-color:#FF4747"
     offset="0" /><stop
     id="stop18-6"
     style="stop-color:#FF9666"
     offset="1" /></linearGradient><linearGradient
   y2="19"
   x2="86"
   y1="19"
   x1="10"
   gradientUnits="userSpaceOnUse"
   id="SVGID_2_-9"
   gradientTransform="matrix(1.1224982,0,0,0.38084941,-10.303582,66.830357)"><stop
     id="stop16-9"
     style="stop-color:#FF4747"
     offset="0" /><stop
     id="stop18-2"
     style="stop-color:#FF9666"
     offset="1" /></linearGradient><linearGradient
   y2="19"
   x2="86"
   y1="19"
   x1="10"
   gradientUnits="userSpaceOnUse"
   id="SVGID_2_-1"
   gradientTransform="matrix(1.1224982,0,0,0.6868379,-11.88335,46.444782)"
   xlink:href="#SVGID_2_-9"
   spreadMethod="repeat"><stop
     id="stop16-96"
     style="stop-color:#FF4747"
     offset="0" /><stop
     id="stop18-21"
     style="stop-color:#ff9d73;stop-opacity:1"
     offset="1" /></linearGradient><clipPath
   clipPathUnits="userSpaceOnUse"
   id="clipPath4770"><g
     id="use4772"
     inkscape:label="Clip"><path
       sodipodi:nodetypes="ssssssssssssssssssccssscccccsssccccccccsccscc"
       d="m 31.36816,80.668805 c -0.84245,0 -1.52515,-0.682705 -1.52515,-1.525248 V 59.316612 c 0,-0.842445 0.6827,-1.525248 1.52515,-1.525248 H 51.1952 c 0.84245,0 1.52515,0.682803 1.52515,1.525248 v 19.826945 c 0,0.842543 -0.6827,1.525248 -1.52515,1.525248 z m 0,-0.571722 H 51.1952 c 0.52641,0 0.95303,-0.427022 0.95303,-0.953526 V 59.316612 c 0,-0.526405 -0.42662,-0.953034 -0.95303,-0.953034 H 31.36816 c -0.52641,0 -0.95304,0.426924 -0.95304,0.953034 v 19.826945 c 0,0.526504 0.42663,0.953526 0.95304,0.953526 z M 35.753,77.237489 V 61.223172 h 6.2913 c 2.68482,0 4.86131,2.176398 4.86131,4.86131 0,2.684814 -2.17649,4.86131 -4.86131,4.86131 h -3.8607 v 6.291304 H 35.753 Z m 2.4306,-8.579176 h 3.71826 c 1.42115,0 2.57383,-1.151898 2.57383,-2.573438 0,-1.421146 -1.15268,-2.573929 -2.57383,-2.573929 H 38.1836 V 68.65792 M 41.28207,34.298966 36.30172,15.71072 h 9.96149 L 41.28286,34.298966 M 32.52015,34.809192 21.56955,44 c 4.88972,5.828205 12.10486,9.195822 19.71291,9.195822 C 48.89003,53.195822 56.11028,49.82791 61,44 L 50.04399,34.809192 c -2.17384,2.590444 -5.38093,4.086103 -8.76153,4.086103 -3.38147,0 -6.58856,-1.496052 -8.76152,-4.086103 z"
       style="fill:#ffffff;fill-opacity:1;fill-rule:nonzero;stroke:none;stroke-width:0.09830162"
       id="path860"
       inkscape:connector-curvature="0" /></g></clipPath><linearGradient
   inkscape:collect="always"
   xlink:href="#linearGradient1012"
   id="linearGradient1014"
   x1="40"
   y1="86"
   x2="40"
   y2="1"
   gradientUnits="userSpaceOnUse" /></defs><sodipodi:namedview
   pagecolor="#ffffff"
   bordercolor="#666666"
   borderopacity="1"
   objecttolerance="10"
   gridtolerance="10"
   guidetolerance="10"
   inkscape:pageopacity="0"
   inkscape:pageshadow="2"
   inkscape:window-width="1920"
   inkscape:window-height="1053"
   id="namedview48"
   showgrid="true"
   inkscape:zoom="4"
   inkscape:cx="83.602031"
   inkscape:cy="35.59198"
   inkscape:window-x="0"
   inkscape:window-y="0"
   inkscape:window-maximized="1"
   inkscape:current-layer="svg46"><inkscape:grid
     type="xygrid"
     id="grid2542" /></sodipodi:namedview>
<g
   id="Layer_2"
   display="none">
</g>
<path
   inkscape:connector-curvature="0"
   style="fill:url(#linearGradient1014);fill-opacity:1;stroke:none;stroke-opacity:1;stroke-width:0.7;stroke-miterlimit:4;stroke-dasharray:none"
   id="path8"
   d="M 1.772,0.35 C 0.987,0.35 0.35,0.987 0.35,1.772 v 82.457 c 0,0.785 0.636,1.422 1.422,1.422 H 43 c 23.556,0 42.65,-19.096 42.65,-42.65 V 1.771 c 0,-0.785 -0.696,-1.422 -1.481,-1.422 H 1.772 Z"
   inkscape:export-filename="/home/tobias/Dokumente/SailfishApps/harbour-concretemixer/icons/172x172/harbour-concretemixer.png"
   inkscape:export-xdpi="193.58"
   inkscape:export-ydpi="193.58" />






<g
   transform="matrix(-0.06528769,0,0,0.06528769,74.942009,7.52101)"
   id="g14"
   style="fill:#ffffff"
   inkscape:export-xdpi="193.58"
   inkscape:export-ydpi="193.58"
   inkscape:export-filename="/home/tobias/Dokumente/SailfishApps/harbour-concretemixer/icons/172x172/harbour-concretemixer.png"><g
     transform="matrix(0.1,0,0,-0.1,0,511)"
     id="g12"
     style="fill:#ffffff"><path
       inkscape:connector-curvature="0"
       d="m 8515.4,3988.9 c -11.6,-4.6 -588.1,-141.2 -1275.8,-303.3 l -1252.7,-294.1 53.3,-129.7 c 27.8,-71.8 345,-847.4 701.6,-1725 C 7098.3,659.3 7397,-63.1 7401.7,-70 c 6.9,-6.9 25.5,0 41.7,11.6 16.2,13.9 120.4,76.4 233.8,141.2 l 201.4,120.4 v -602 -602 H 6396.8 4914.9 v 194.5 192.2 l 571.9,16.2 c 317.2,9.2 578.9,20.8 583.5,27.8 9.2,6.9 -1294.3,3227.7 -1352.2,3341.1 -25.5,50.9 -46.3,34.7 -710.8,-585.8 -500.1,-465.4 -699.3,-664.5 -734,-738.6 -92.6,-189.9 -78.7,-245.4 264,-1088.2 275.5,-678.4 321.8,-778 400.6,-854.4 108.8,-101.9 215.3,-134.3 439.9,-134.3 h 166.7 v -185.2 -185.2 H 3803.6 3065 l -6.9,1442.5 c -6.9,1391.6 -9.3,1442.5 -53.3,1518.9 -25.5,44 -76.4,99.6 -111.1,127.4 -62.5,46.3 -92.6,48.6 -544.1,46.3 -546.5,-2.3 -664.5,-23.2 -965.5,-169 C 916.2,1736 594.3,1254.4 504,643.1 478.5,488 469.3,210.1 469.3,-294.6 v -720.1 l -78.7,-27.8 c -101.9,-37 -236.2,-185.2 -266.3,-298.7 -32.4,-115.8 -32.4,-502.4 0,-620.5 25.5,-88 194.5,-289.4 245.4,-289.4 13.9,0 62.5,81 111.1,178.3 213,433 690,724.7 1180.9,724.7 157.4,0 446.9,-76.4 597.4,-155.1 182.9,-97.2 458.4,-382 541.8,-562.6 39.3,-83.3 78.7,-169 85.7,-189.9 11.6,-39.3 120.4,-41.7 1866.2,-41.7 1745.8,0 1854.6,2.3 1866.2,41.7 97.3,296.4 384.4,632.1 657.6,764.1 516.3,252.4 1099.8,155.1 1507.3,-250.1 141.3,-143.6 321.9,-435.3 321.9,-523.3 0,-25.5 48.6,-32.4 208.4,-32.4 h 208.4 v 648.3 648.3 h -636.7 -636.7 v 713.1 713.2 l 687.7,402.9 c 852.1,502.5 960.9,602 963.2,868.3 0,97.3 -62.5,270.9 -395.9,1099.8 -437.6,1081.3 -453.8,1109.1 -662.2,1169.3 -104.4,32.3 -268.7,43.9 -326.6,23.1 z M 2692.1,1036.7 V 295.8 H 1763.6 832.8 L 846.7,488 c 44,625.2 426,1125.3 956.3,1252.6 88,20.8 273.2,34.7 514,34.7 l 375.1,2.3 z"
       id="path4"
       style="fill:#ffffff" /><path
       inkscape:connector-curvature="0"
       d="m 5257.6,3264.2 c -238.5,-97.3 -435.3,-187.6 -435.3,-196.8 0,-18.5 1500.4,-3723.2 1511.9,-3737.1 4.6,-2.3 217.7,78.7 474.7,180.6 289.4,115.8 460.8,196.8 453.8,213 -4.6,16.2 -347.3,856.7 -759.5,1868.6 -467.7,1153.1 -759.5,1843.1 -780.3,1845.4 -18.4,2.2 -226.8,-76.5 -465.3,-173.7 z"
       id="path6"
       style="fill:#ffffff" /><path
       inkscape:connector-curvature="0"
       d="m 1522.8,-1549.6 c -338.1,-46.3 -643.7,-238.5 -819.7,-514 -470,-731.7 67.2,-1713.4 935.4,-1715.7 724.7,0 1268.8,699.3 1088.3,1400.8 -76.4,289.4 -289.4,558 -555.7,699.3 -199.1,104.1 -458.4,157.4 -648.3,129.6 z m 377.4,-622.8 c 264,-132 377.4,-472.4 245.4,-731.7 -208.4,-412.1 -789.6,-419.1 -993.3,-11.6 -67.2,136.6 -78.7,338.1 -25.5,465.4 125.1,296.4 479.4,426 773.4,277.9 z"
       id="path8-3"
       style="fill:#ffffff" /><path
       inkscape:connector-curvature="0"
       d="m 7751.3,-1549.6 c -632.1,-83.3 -1079,-662.2 -984.1,-1273.5 83.3,-541.8 560.3,-954 1099.8,-956.3 724.7,0 1268.9,699.3 1088.3,1400.8 -108.8,416.8 -483.9,754.8 -914.6,822 -152.8,23.2 -164.4,23.2 -289.4,7 z m 377.4,-622.8 c 199.1,-99.6 324.2,-326.5 298.7,-544.1 -53.3,-442.3 -553.4,-652.9 -907.6,-379.7 -113.5,85.7 -196.8,268.6 -196.8,433 0,159.8 37,257 136.6,370.5 164.3,187.4 437.6,236 669.1,120.3 z"
       id="path10"
       style="fill:#ffffff" /></g></g><g
   transform="translate(-621.417,-116.95)"
   id="g16" /><g
   transform="translate(-621.417,-116.95)"
   id="g18" /><g
   transform="translate(-621.417,-116.95)"
   id="g20" /><g
   transform="translate(-621.417,-116.95)"
   id="g22" /><g
   transform="translate(-621.417,-116.95)"
   id="g24" /><g
   transform="translate(-621.417,-116.95)"
   id="g26" /><g
   transform="translate(-621.417,-116.95)"
   id="g28" /><g
   transform="translate(-621.417,-116.95)"
   id="g30" /><g
   transform="translate(-621.417,-116.95)"
   id="g32" /><g
   transform="translate(-621.417,-116.95)"
   id="g34" /><g
   transform="translate(-621.417,-116.95)"
   id="g36" /><g
   transform="translate(-621.417,-116.95)"
   id="g38" /><g
   transform="translate(-621.417,-116.95)"
   id="g40" /><g
   transform="translate(-621.417,-116.95)"
   id="g42" /><g
   transform="translate(-621.417,-116.95)"
   id="g44" /></svg>